M48
;DRILL file {KiCad 5.0.1-33cea8e~68~ubuntu16.04.1} date Wed 24 Oct 2018 20:06:17 EEST
;FORMAT={-:-/ absolute / inch / decimal}
FMAT,2
INCH,TZ
T1C0.0157
T2C0.0276
T3C0.0394
T4C0.0413
T5C0.0591
T6C0.0600
T7C0.0669
T8C0.0866
%
G90
G05
M72
T1
X2.9134Y-2.7559
X3.0709Y-4.9016
X3.0906Y-4.2913
X3.1496Y-2.7559
X3.3858Y-2.7559
X3.3858Y-3.9173
X3.3858Y-5.0394
X3.4252Y-4.5472
X3.7795Y-3.8583
X3.7795Y-4.4488
X3.7795Y-5.0394
X3.8583Y-4.0354
X3.878Y-4.626
X3.8976Y-4.3701
X4.311Y-3.0906
X4.3504Y-3.3858
X4.4094Y-3.4646
X4.5079Y-3.0709
X4.8425Y-5.0984
X5.0984Y-4.9016
X6.1024Y-2.1654
X4.0157Y-3.7402
X5.1181Y-2.5591
X5.9055Y-2.8543
X4.8425Y-4.8425
X4.0748Y-3.5827
X4.5276Y-3.5433
X4.1732Y-4.4094
X4.1339Y-4.1535
X4.1339Y-2.5591
X4.1732Y-3.0709
X4.0945Y-3.0709
X4.1929Y-4.252
X5.1181Y-1.7717
X5.4134Y-2.8543
X2.9528Y-2.4016
X3.0315Y-2.4016
X2.7559Y-3.1496
X4.1339Y-3.7992
X5.7087Y-1.7717
X3.2087Y-2.2835
X4.2717Y-4.4094
X5.7087Y-2.2638
X4.2323Y-3.9567
X5.0787Y-3.0315
X5.1181Y-3.937
X3.1496Y-3.1496
X4.0354Y-3.9567
X2.7559Y-1.9685
X5.6102Y-2.3622
X5.0394Y-3.3465
X5.7087Y-2.1654
X2.9724Y-4.0157
X4.1732Y-2.9921
X4.2323Y-2.5591
X5.8071Y-2.0669
X4.3307Y-4.9213
X5.5118Y-3.4449
X3.5827Y-2.6575
X5.7087Y-3.248
X3.8976Y-4.7441
X4.0354Y-2.5591
X4.5276Y-2.9528
X6.1024Y-2.9528
X4.2717Y-4.2913
X4.1339Y-3.9567
X3.3858Y-2.6575
X4.1929Y-4.311
X4.0339Y-4.1067
X4.0157Y-4.685
X4.7441Y-4.8622
X3.5433Y-2.0472
X4.1339Y-3.1496
X3.1496Y-1.7717
X5.9055Y-3.4449
X3.5827Y-2.126
X4.7244Y-3.1496
X3.937Y-1.9685
X3.7795Y-2.4409
X6.1024Y-3.3465
X5.9055Y-1.7717
X3.3071Y-4.6457
X3.248Y-2.5
X3.8583Y-4.7835
X5.8071Y-2.3622
X3.937Y-5.315
X4.0354Y-2.9134
X5.6102Y-2.1654
X3.8976Y-4.6654
X3.6811Y-2.2638
X3.5433Y-1.7717
X4.1339Y-4.5669
X4.3307Y-3.7402
X3.1102Y-2.2835
X4.4685Y-2.5
X5.4134Y-1.7717
X2.7559Y-2.4016
X5.5118Y-1.7717
X4.7244Y-1.9685
X4.7244Y-3.3465
X4.1339Y-2.3622
X4.1339Y-5.1181
X4.7244Y-2.7559
X5.7087Y-3.0512
X4.2323Y-3.7402
X5.8071Y-3.1496
X4.9213Y-2.5591
X6.1024Y-4.9213
X3.5433Y-3.7402
X2.7559Y-5.1181
X3.1102Y-4.6457
X4.0945Y-2.9921
X4.1142Y-3.3661
X4.0157Y-4.5669
X3.6024Y-2.2047
X4.0748Y-4.5079
X5.8071Y-3.248
X4.0354Y-2.3425
X4.7244Y-3.5433
X3.3071Y-4.5669
X4.3307Y-1.7717
X5.1181Y-3.5433
X2.5591Y-2.7559
X4.3307Y-2.1654
X2.9921Y-4.7835
X3.937Y-4.2323
X5.4134Y-3.4449
X5.9055Y-2.3622
X4.5276Y-3.7402
X5.7087Y-3.4449
X4.0157Y-4.2323
X2.9528Y-3.3465
X4.0748Y-3.4646
X3.3661Y-2.2047
X3.5433Y-1.9685
X3.4055Y-2.126
X3.1102Y-4.7835
X2.9921Y-4.6457
X4.0748Y-4.626
X4.2323Y-2.9134
X3.9567Y-4.1339
X5.1181Y-2.7559
X4.5276Y-3.3465
X5.8071Y-2.2638
X4.5276Y-4.1339
X5.6102Y-3.1496
X3.7402Y-3.7402
X5.0591Y-1.9882
X4.3307Y-1.9685
X2.7559Y-2.3228
X4.1339Y-4.7244
X3.9764Y-2.1063
X4.3307Y-2.3622
X3.6417Y-4.9803
X5.7087Y-2.8543
X3.937Y-2.3228
X4.9803Y-2.874
X3.1496Y-2.9724
X3.3071Y-3.937
X4.9213Y-4.5276
X3.4646Y-2.0472
X4.7244Y-4.3307
X4.0945Y-3.189
X4.1142Y-4.2323
X5.6102Y-2.2638
X3.2874Y-4.1732
X5.6102Y-2.0669
X4.3307Y-4.5276
X5.8071Y-1.7717
X3.1496Y-1.9685
X3.8976Y-4.0748
X4.7244Y-4.7244
X3.8583Y-4.1929
X4.7244Y-2.1654
X3.3465Y-3.7402
X4.9213Y-3.7402
X4.7244Y-1.7717
X3.0315Y-2.3228
X4.9606Y-1.8307
X3.1496Y-5.1181
X5.6102Y-2.8543
X3.3465Y-5.1181
X2.5591Y-3.5433
X2.7559Y-1.7717
X5.4134Y-2.3622
X3.3071Y-2.2835
X4.5866Y-2.3622
X2.9528Y-2.3228
X5.7087Y-2.0866
X4.2323Y-2.4016
X5.7087Y-2.3622
X4.2717Y-4.1732
X5.6102Y-1.7717
X4.1732Y-3.4843
X3.0709Y-2.4409
X4.3307Y-4.7244
X4.1339Y-2.7165
X5.1181Y-4.7244
X3.0118Y-4.1732
X3.937Y-4.9213
X4.1339Y-4.4488
X3.937Y-1.7717
X3.9567Y-4.7441
X4.5276Y-2.1654
X4.7244Y-2.9528
X4.1929Y-3.5827
X5.8071Y-3.0512
X5.9055Y-4.3307
X5.6102Y-3.0512
X5.1181Y-4.3307
X4.7244Y-5.315
X6.1024Y-4.5276
X4.3307Y-5.315
X3.7402Y-2.8346
X5.8071Y-2.1654
X5.6102Y-3.248
X3.6811Y-2.4409
X3.7402Y-2.1063
X3.937Y-2.4016
X5.0197Y-2.3425
X3.1299Y-4.1732
X2.7559Y-3.3465
X3.3071Y-4.0157
X5.8071Y-2.8543
X3.8583Y-2.4409
X4.5276Y-3.937
X5.6102Y-3.4449
X3.1496Y-3.3465
X4.2126Y-4.4882
X2.9528Y-3.1496
X6.1024Y-2.5591
X5.5118Y-2.8543
X5.7087Y-3.1496
X5.8071Y-3.4449
X4.7244Y-3.937
X5.5118Y-2.3622
X3.1102Y-4.0157
X5.1575Y-3.1299
X3.9567Y-4.626
X3.1496Y-3.7402
X4.1339Y-4.9213
T2
X3.7795Y-2.5197
X3.9764Y-2.8346
X4.1929Y-2.2441
X4.3307Y-2.8346
X4.626Y-4.1339
X4.8425Y-3.2087
X5.3543Y-1.8504
X6.0236Y-1.9685
T3
X2.8543Y-2.3622
X2.8543Y-2.4606
X2.8544Y-4.7244
X2.8544Y-4.8228
X2.8544Y-4.0945
X2.8544Y-4.1929
T4
X2.5591Y-2.9949
X2.5591Y-3.3327
X2.7559Y-3.5559
X2.9528Y-2.9949
X3.1496Y-3.5559
X3.3465Y-2.9949
X3.3465Y-3.2185
X3.3465Y-3.4311
X3.5433Y-3.5559
X3.937Y-3.5559
T5
X2.5394Y-4.7244
X2.5394Y-4.0945
X2.5394Y-2.3622
T6
X6.122Y-3.7961
X6.122Y-3.9961
X6.122Y-4.1961
T7
X2.4394Y-4.6244
X2.4394Y-4.8244
X2.6394Y-4.6244
X2.6394Y-4.8244
X2.4394Y-3.9945
X2.4394Y-4.1945
X2.6394Y-3.9945
X2.6394Y-4.1945
X2.4394Y-2.2622
X2.4394Y-2.4622
X2.6394Y-2.2622
X2.6394Y-2.4622
T8
X2.6864Y-2.1614
X2.6864Y-2.5629
X2.6865Y-4.5236
X2.6865Y-4.9251
X2.6865Y-3.8937
X2.6865Y-4.2952
T0
M30
