M48
; DRILL file {KiCad 5.1.7-a382d34a8~87~ubuntu20.04.1} date Wed Oct 28 11:35:50 2020
; FORMAT={-:-/ absolute / inch / decimal}
; #@! TF.CreationDate,2020-10-28T11:35:50+02:00
; #@! TF.GenerationSoftware,Kicad,Pcbnew,5.1.7-a382d34a8~87~ubuntu20.04.1
; #@! TF.FileFunction,Plated,1,2,PTH
FMAT,2
INCH
T1C0.0157
T2C0.0276
T3C0.0315
T4C0.0413
T5C0.0591
T6C0.0598
%
G90
G05
T1
X2.5591Y-2.7559
X2.5591Y-3.1496
X2.5591Y-3.7402
X2.5591Y-4.3307
X2.5591Y-4.5276
X2.5591Y-5.1181
X2.5591Y-5.315
X2.6378Y-1.7913
X2.6378Y-1.9291
X2.6378Y-2.0669
X2.7559Y-2.2835
X2.7559Y-2.4409
X2.7559Y-2.7559
X2.7559Y-3.1496
X2.7559Y-3.3465
X2.7559Y-3.7402
X2.7559Y-3.937
X2.7559Y-4.3307
X2.7559Y-4.5276
X2.7559Y-4.9213
X2.7559Y-5.1181
X2.7559Y-5.315
X2.815Y-1.9094
X2.8445Y-1.998
X2.8858Y-1.8514
X2.9232Y-2.0472
X2.9528Y-3.1496
X2.9528Y-3.3465
X2.9528Y-3.7402
X2.9528Y-3.937
X2.9528Y-4.3307
X2.9528Y-4.5276
X2.9528Y-4.9213
X2.9528Y-5.1181
X3.0709Y-2.2835
X3.0709Y-2.4409
X3.0709Y-2.9134
X3.0709Y-4.8622
X3.0709Y-4.9409
X3.0906Y-4.252
X3.0906Y-4.3307
X3.1496Y-2.0866
X3.1496Y-2.1654
X3.1496Y-3.3465
X3.1496Y-3.7402
X3.1496Y-3.937
X3.1496Y-4.5276
X3.1496Y-5.1181
X3.2283Y-2.9331
X3.2283Y-3.1102
X3.2283Y-4.7835
X3.2677Y-4.1732
X3.2874Y-2.2835
X3.2874Y-2.4213
X3.3071Y-2.9134
X3.3465Y-1.9882
X3.3465Y-2.0866
X3.3465Y-3.7402
X3.3465Y-4.5276
X3.3465Y-4.9213
X3.3465Y-5.1181
X3.3858Y-2.6575
X3.3858Y-3.878
X3.3858Y-3.9567
X3.3858Y-5.0394
X3.4252Y-4.5079
X3.4252Y-4.5866
X3.5433Y-2.9134
X3.5433Y-3.7402
X3.563Y-4.4291
X3.5827Y-2.126
X3.5827Y-2.6575
X3.6024Y-4.2913
X3.622Y-2.7756
X3.622Y-2.9331
X3.6417Y-4.9213
X3.6811Y-3.8976
X3.6811Y-4.0551
X3.6811Y-4.6654
X3.7205Y-4.5079
X3.7402Y-1.9685
X3.7402Y-2.1063
X3.7402Y-3.7402
X3.7402Y-5.315
X3.7795Y-2.3031
X3.7795Y-3.8583
X3.7795Y-4.4488
X3.7795Y-5.0394
X3.8583Y-4.0354
X3.8583Y-4.7835
X3.878Y-4.626
X3.8976Y-4.3701
X3.937Y-1.9685
X3.937Y-3.7402
X3.937Y-4.5276
X3.937Y-4.9213
X3.937Y-5.315
X3.9764Y-2.1063
X3.9764Y-2.3031
X4.0354Y-2.9331
X4.0945Y-2.3622
X4.1339Y-1.9685
X4.1339Y-2.7362
X4.1339Y-3.1693
X4.1339Y-3.3661
X4.1339Y-3.8067
X4.1339Y-4.7244
X4.1339Y-4.9213
X4.1339Y-5.315
X4.1929Y-2.9724
X4.1929Y-3.5039
X4.311Y-3.0906
X4.3307Y-1.9685
X4.3307Y-2.1654
X4.3307Y-3.5433
X4.3307Y-3.7402
X4.3307Y-4.5276
X4.3307Y-4.7244
X4.3307Y-5.1181
X4.3307Y-5.315
X4.3504Y-3.3858
X4.4094Y-3.4646
X4.4685Y-3.0709
X4.5276Y-1.9685
X4.5276Y-2.1654
X4.5276Y-3.5433
X4.5276Y-3.7402
X4.5276Y-3.937
X4.5472Y-3.0709
X4.7244Y-1.9685
X4.7244Y-2.1654
X4.7244Y-2.7559
X4.7244Y-2.9528
X4.7244Y-3.1496
X4.7244Y-3.3465
X4.7244Y-3.5433
X4.7244Y-3.7402
X4.7244Y-3.937
X4.7244Y-4.1339
X4.7244Y-4.7244
X4.8228Y-4.7835
X4.8425Y-5.0394
X4.9213Y-1.9685
X4.9213Y-2.5591
X4.9213Y-2.7559
X4.9213Y-2.7559
X4.9213Y-3.7402
X4.9213Y-3.937
X4.9213Y-4.1339
X4.9213Y-4.3307
X4.9213Y-4.5276
X4.9606Y-2.0866
X4.9803Y-2.9724
X5.0591Y-2.2638
X5.0787Y-3.1299
X5.1181Y-1.9685
X5.1181Y-2.3819
X5.1181Y-2.5591
X5.1181Y-2.7559
X5.1181Y-2.7559
X5.1181Y-4.8622
X5.1575Y-3.1299
X5.1969Y-2.3228
X5.2165Y-5.2559
X5.4134Y-4.252
X5.6102Y-4.252
X5.8071Y-4.252
X6.1024Y-4.7244
X6.1024Y-4.9213
X6.1024Y-5.1181
T2
X3.4646Y-1.8504
X3.7795Y-2.5197
X3.8583Y-4.1929
X3.9764Y-2.8346
X4.0354Y-2.5591
X4.0354Y-3.9567
X4.0354Y-4.1339
X4.1339Y-2.5591
X4.1339Y-3.9567
X4.1929Y-2.2441
X4.2323Y-2.3819
X4.2323Y-2.5591
X4.2323Y-3.9567
X4.3307Y-2.8346
X4.626Y-4.1339
X4.7244Y-2.4213
X4.8425Y-3.3268
X5.315Y-3.0512
X5.315Y-3.5433
X5.5118Y-2.0669
X5.5118Y-2.6575
X5.5118Y-3.0512
X5.5118Y-3.1496
X5.5118Y-3.248
X5.5118Y-3.3465
X5.5118Y-3.4449
X5.5118Y-4.7244
X5.5118Y-4.8228
X5.5118Y-4.9213
X5.5118Y-5.0197
X5.5118Y-5.1181
X5.6102Y-2.0669
X5.6102Y-2.1654
X5.6102Y-2.2638
X5.6102Y-2.3622
X5.6102Y-2.4606
X5.6102Y-2.5591
X5.6102Y-2.6575
X5.6102Y-3.0512
X5.6102Y-3.1496
X5.6102Y-3.248
X5.6102Y-3.3465
X5.6102Y-3.4449
X5.6102Y-4.7244
X5.6102Y-4.8228
X5.6102Y-4.9213
X5.6102Y-5.0197
X5.6102Y-5.1181
X5.7087Y-2.0669
X5.7087Y-2.1654
X5.7087Y-2.2638
X5.7087Y-2.3622
X5.7087Y-2.4606
X5.7087Y-2.5591
X5.7087Y-2.6575
X5.7087Y-3.0512
X5.7087Y-3.1496
X5.7087Y-3.248
X5.7087Y-3.3465
X5.7087Y-3.4449
X5.7087Y-4.7244
X5.7087Y-4.8228
X5.7087Y-4.9213
X5.7087Y-5.0197
X5.7087Y-5.1181
X5.8071Y-2.0669
X5.8071Y-2.1654
X5.8071Y-2.2638
X5.8071Y-2.3622
X5.8071Y-2.4606
X5.8071Y-2.5591
X5.8071Y-2.6575
X5.8071Y-3.0512
X5.8071Y-3.1496
X5.8071Y-3.248
X5.8071Y-3.3465
X5.8071Y-3.4449
X5.8071Y-4.7244
X5.8071Y-4.8228
X5.8071Y-4.9213
X5.8071Y-5.0197
X5.8071Y-5.1181
X5.9055Y-2.0669
X5.9055Y-2.6575
T3
X5.0Y-3.4449
X5.0Y-3.5449
X5.0Y-5.2362
X5.0Y-5.3362
X5.0Y-2.5591
X5.0Y-2.6591
T4
X2.5591Y-2.9949
X2.5591Y-3.3327
X2.7559Y-3.5559
X2.9528Y-2.9949
X3.1496Y-3.5559
X3.3465Y-2.9949
X3.3465Y-3.2185
X3.3465Y-3.4311
X3.5433Y-3.5559
X3.937Y-3.5559
T5
X2.4394Y-4.6244
X2.4394Y-4.8244
X2.5394Y-4.7244
X2.6394Y-4.6244
X2.6394Y-4.8244
X2.4394Y-2.2622
X2.4394Y-2.4622
X2.5394Y-2.3622
X2.6394Y-2.2622
X2.6394Y-2.4622
X2.4394Y-3.9945
X2.4394Y-4.1945
X2.5394Y-4.0945
X2.6394Y-3.9945
X2.6394Y-4.1945
T6
X6.122Y-3.8685
X6.122Y-4.0685
X6.122Y-4.2685
X6.122Y-4.4685
T0
M30
